<svg width="18" height="18" viewBox="0 0 18 18" fill="none" xmlns="http://www.w3.org/2000/svg">
<path fill-rule="evenodd" clip-rule="evenodd" d="M9.00001 17.886C10.1917 17.886 11.1667 17.0657 11.1667 16.0632H6.83334C6.83334 17.0657 7.80834 17.886 9.00001 17.886ZM15.5 12.4177V7.86076C15.5 5.06282 13.7342 2.72056 10.625 2.10083V1.48109C10.625 0.724639 9.89918 0.114014 9.00001 0.114014C8.10084 0.114014 7.37501 0.724639 7.37501 1.48109V2.10083C4.27668 2.72056 2.50001 5.0537 2.50001 7.86076V12.4177L0.333344 14.2404V15.1518H17.6667V14.2404L15.5 12.4177ZM13.3333 13.329H4.66668V7.86076C4.66668 5.60053 6.30251 3.75954 9.00001 3.75954C11.6975 3.75954 13.3333 5.60053 13.3333 7.86076V13.329Z" fill="white"/>
</svg>
